<svg xmlns="http://www.w3.org/2000/svg" version="1.1" xmlns:xlink="http://www.w3.org/1999/xlink" viewBox="0 0 200 200"><rect width="200" height="200" fill="url('#gradient')"></rect><defs><linearGradient id="gradient" gradientTransform="rotate(49 0.5 0.5)"><stop offset="0%" stop-color="#448aff"></stop><stop offset="100%" stop-color="#448aff"></stop></linearGradient></defs><g><g fill="#ffffff" transform="matrix(4.775129533678756,0,0,4.775129533678756,19.134587025611523,131.0373636062899)" stroke="#2ec7b5" stroke-width="0.2"><path d="M9.98 0L9.15-2.66L4.45-2.66L3.63 0L-0.03 0L5.19-14.22L8.41-14.22L13.66 0L9.98 0ZM6.80-10.23L5.27-5.30L8.33-5.30L6.80-10.23ZM20.54-14.22L15.67 1.22L13.34 1.22L18.19-14.22L20.54-14.22ZM24.41-14.22L27.24-3.87L30.07-14.22L33.90-14.22L29.11 0L25.36 0L20.62-14.22L24.41-14.22Z"></path></g></g></svg>